<svg id="visual" viewBox="0 0 900 450" width="900" height="450" xmlns="http://www.w3.org/2000/svg" xmlns:xlink="http://www.w3.org/1999/xlink" version="1.1"><rect x="0" y="0" width="900" height="450" fill="#141414"></rect><defs><linearGradient id="grad1_0" x1="50%" y1="100%" x2="100%" y2="0%"><stop offset="10%" stop-color="#141414" stop-opacity="1"></stop><stop offset="90%" stop-color="#141414" stop-opacity="1"></stop></linearGradient></defs><defs><linearGradient id="grad2_0" x1="0%" y1="100%" x2="50%" y2="0%"><stop offset="10%" stop-color="#141414" stop-opacity="1"></stop><stop offset="90%" stop-color="#141414" stop-opacity="1"></stop></linearGradient></defs><g transform="translate(900, 450)"><path d="M-247.5 0C-250.5 -10.7 -253.5 -21.3 -245.7 -29.8C-237.9 -38.3 -219.2 -44.7 -208.8 -51.5C-198.3 -58.2 -196 -65.3 -198.2 -75.2C-200.4 -85.1 -207.2 -97.7 -209.9 -110.1C-212.5 -122.6 -211.2 -134.8 -200 -138C-188.8 -141.3 -167.8 -135.4 -161.7 -143.2C-155.5 -151 -164.3 -172.5 -160.5 -181.1C-156.7 -189.8 -140.4 -185.7 -129.5 -187.6C-118.6 -189.6 -113.1 -197.6 -105 -200.1C-96.9 -202.7 -86.3 -199.8 -78.4 -206.6C-70.4 -213.5 -65.2 -230.2 -56.5 -229.1C-47.7 -228.1 -35.4 -209.4 -25.4 -209.5C-15.4 -209.6 -7.7 -228.5 0 -247.5L0 0Z" fill="#FBAE3C"></path></g><g transform="translate(0, 0)"><path d="M247.5 0C248 10.5 248.4 21 241.2 29.3C234.1 37.6 219.3 43.6 219.4 54.1C219.6 64.6 234.7 79.6 231.4 87.8C228.1 95.9 206.3 97.3 194.8 102.2C183.3 107.2 182.1 115.8 177.8 122.7C173.4 129.6 165.9 134.7 162.4 143.9C159 153.1 159.6 166.2 155.8 175.9C152 185.6 143.8 191.8 134.1 194.2C124.4 196.7 113.2 195.3 105 200.1C96.9 204.9 91.7 215.9 83.7 220.7C75.7 225.4 64.8 223.9 55 223.3C45.3 222.8 36.6 223.1 27.6 227.3C18.6 231.5 9.3 239.5 0 247.5L0 0Z" fill="#FBAE3C"></path></g></svg>